<svg xmlns="http://www.w3.org/2000/svg" viewBox="4584 4196 12 12"><defs><style>.a{fill:#fff;}</style></defs><g transform="translate(4038 3160)"><path class="a" d="M7.67,5.913l3.975-3.951a1.234,1.234,0,0,0,0-1.683,1.253,1.253,0,0,0-1.693,0L5.976,4.23,2.075.352a1.253,1.253,0,0,0-1.693,0,1.234,1.234,0,0,0,0,1.683L4.357,5.987.381,9.938a1.234,1.234,0,0,0,0,1.683,1.253,1.253,0,0,0,1.693,0L6.05,7.67l3.975,3.951a1.253,1.253,0,0,0,1.693,0,1.234,1.234,0,0,0,0-1.683Z" transform="translate(545.95 1036.05)"/></g></svg>