<svg xmlns="http://www.w3.org/2000/svg" viewBox="7446.843 2998 20.157 20"><defs><style>.a{fill:#fff;}</style></defs><g transform="translate(7446.843 2998)"><path class="a" d="M1.265,8.519A1.231,1.231,0,0,1,0,7.315V3.426A3.438,3.438,0,0,1,3.344,0H6.96A1.308,1.308,0,0,1,8.225,1.3,1.176,1.176,0,0,1,6.96,2.5H3.344a.865.865,0,0,0-.9.926V7.315A1.211,1.211,0,0,1,1.265,8.519Z"/><path class="a" d="M20.131,8.426a1.308,1.308,0,0,1-1.265-1.3v-3.7a.865.865,0,0,0-.9-.926h-3.8A1.308,1.308,0,0,1,12.9,1.2,1.253,1.253,0,0,1,14.256,0h3.8A3.438,3.438,0,0,1,21.4,3.426v3.7A1.374,1.374,0,0,1,20.131,8.426Z" transform="translate(-1.24)"/><path class="a" d="M17.981,20.9H14.365a1.3,1.3,0,0,1,0-2.593h3.616a.865.865,0,0,0,.9-.926V13.5a1.309,1.309,0,0,1,1.265-1.3,1.251,1.251,0,0,1,1.265,1.3v3.889A3.535,3.535,0,0,1,17.981,20.9Z" transform="translate(-1.259 -0.904)"/><path class="a" d="M7.141,20.926h-3.8A3.438,3.438,0,0,1,0,17.5V13.8a1.309,1.309,0,0,1,1.265-1.3,1.251,1.251,0,0,1,1.265,1.3v3.7a.865.865,0,0,0,.9.926h3.8a1.308,1.308,0,0,1,1.265,1.3A1.542,1.542,0,0,1,7.141,20.926Z" transform="translate(0 -0.926)"/></g></svg>