<svg xmlns="http://www.w3.org/2000/svg" viewBox="4832.389 4941.9 29.464 20"><defs><style>.a{fill:#fff;}</style></defs><g transform="translate(3325.692 3919.9)"><g transform="translate(1506.697 1022)"><path class="a" d="M10.856.191,5.565,5.979H1.733A1.854,1.854,0,0,0,0,7.877v4.27a1.854,1.854,0,0,0,1.733,1.9H5.565l5.2,5.788a1.05,1.05,0,0,0,1.642-.949V1.14A1,1,0,0,0,10.856.191Z" transform="translate(0 -0.019)"/></g><g transform="translate(1523.084 1025.846)"><path class="a" d="M29.634,9.488l4.252-4.332a1.359,1.359,0,0,0,0-1.845,1.359,1.359,0,0,0-1.845,0L27.708,7.643,23.456,3.311a1.359,1.359,0,0,0-1.845,0,1.359,1.359,0,0,0,0,1.845l4.332,4.332-4.332,4.332a1.3,1.3,0,0,0,1.845,1.845l4.332-4.332,4.332,4.332a1.3,1.3,0,0,0,1.845-1.845Z" transform="translate(-21.25 -2.95)"/></g></g></svg>