<svg xmlns="http://www.w3.org/2000/svg" viewBox="3834 3362 28 28">
  <defs>
    <style>
      .cls-1 {
        fill: #fff;
      }
    </style>
  </defs>
  <g id="CONTRACT" transform="translate(3834 3362)">
    <path id="Path_227" data-name="Path 227" class="cls-1" d="M1.758,11.926A1.716,1.716,0,0,1,0,10.241V4.8A4.8,4.8,0,0,1,4.646,0H9.668a1.825,1.825,0,0,1,1.758,1.815A1.64,1.64,0,0,1,9.668,3.5H4.646A1.206,1.206,0,0,0,3.39,4.8v5.444A1.69,1.69,0,0,1,1.758,11.926Z" transform="translate(11.426 11.926) rotate(180)"/>
    <path id="Path_228" data-name="Path 228" class="cls-1" d="M10.045,11.8A1.825,1.825,0,0,1,8.287,9.982V4.8A1.206,1.206,0,0,0,7.031,3.5H1.758A1.825,1.825,0,0,1,0,1.685,1.746,1.746,0,0,1,1.883,0H7.157A4.8,4.8,0,0,1,11.8,4.8V9.982A1.917,1.917,0,0,1,10.045,11.8Z" transform="translate(28 11.796) rotate(180)"/>
    <path id="Path_229" data-name="Path 229" class="cls-1" d="M6.78,12.185H1.758a1.816,1.816,0,0,1,0-3.63H6.78a1.206,1.206,0,0,0,1.256-1.3V1.815A1.826,1.826,0,0,1,9.794,0a1.745,1.745,0,0,1,1.758,1.815V7.259A4.931,4.931,0,0,1,6.78,12.185Z" transform="translate(28 28) rotate(180)"/>
    <path id="Path_230" data-name="Path 230" class="cls-1" d="M9.919,11.8H4.646A4.8,4.8,0,0,1,0,7V1.815A1.826,1.826,0,0,1,1.758,0,1.745,1.745,0,0,1,3.516,1.815V7A1.206,1.206,0,0,0,4.771,8.3h5.274A1.825,1.825,0,0,1,11.8,10.111,2.147,2.147,0,0,1,9.919,11.8Z" transform="translate(11.803 28) rotate(180)"/>
  </g>
</svg>
