<svg xmlns="http://www.w3.org/2000/svg" viewBox="3815.232 2394 45.897 42">
  <defs>
    <style>
      .cls-1 {
        fill: #fff;
      }
    </style>
  </defs>
  <path id="prof" class="cls-1" d="M22.948,0A23.036,23.036,0,0,0,9.959,42V37.887c0-4.763,2.814-8.876,6.928-9.742a26.024,26.024,0,0,1,6.062-.649,26.024,26.024,0,0,1,6.062.649c3.9.866,6.928,4.979,6.928,9.742V42A23.036,23.036,0,0,0,22.948,0Zm0,24.68a8.443,8.443,0,0,1,0-16.887,8.319,8.319,0,0,1,8.443,8.443A8.454,8.454,0,0,1,22.948,24.68Z" transform="translate(3815.232 2394)"/>
</svg>
