<svg xmlns="http://www.w3.org/2000/svg" viewBox="3777.781 3362 28.219 28">
  <defs>
    <style>
      .cls-1 {
        fill: #fff;
      }
    </style>
  </defs>
  <g id="ENGINE" transform="translate(3777.781 3362)">
    <path id="Path_191" data-name="Path 191" class="cls-1" d="M5.578,3.281a1.182,1.182,0,0,1,.766.328c.438.219.875.438,1.422.656.219,0,.438.109.766.109a1.891,1.891,0,0,0,1.094-.109,7.351,7.351,0,0,0,1.313-.656,1.967,1.967,0,0,0,.656-.984c.219-.547.437-1.2.656-1.859A1.087,1.087,0,0,1,13.344,0h1.531a1.152,1.152,0,0,1,1.094.875c.219.547.438,1.2.656,1.75a2.391,2.391,0,0,0,.328.547,2.184,2.184,0,0,0,1.094.875,3.028,3.028,0,0,0,1.422.328,2.574,2.574,0,0,0,.875-.219A9.7,9.7,0,0,0,22.2,3.281a1.163,1.163,0,0,1,1.313.219l1.094,1.094a1.025,1.025,0,0,1,.219,1.2c-.219.547-.547.984-.766,1.531-.109.438-.219.766-.328,1.2a1.387,1.387,0,0,0,.109.656,3.39,3.39,0,0,0,.656,1.422,1.092,1.092,0,0,0,.547.437,9.462,9.462,0,0,0,1.859.766c.219.109.437.109.547.219a1.189,1.189,0,0,1,.766,1.094v1.531a1.317,1.317,0,0,1-.766,1.094,15.946,15.946,0,0,0-2.078.766c-.109.109-.219.109-.328.219a2.184,2.184,0,0,0-.875,1.094,3.56,3.56,0,0,0-.437,1.531,2.061,2.061,0,0,0,.219.875,14.238,14.238,0,0,0,.875,1.859,1.163,1.163,0,0,1-.219,1.313L23.516,24.5a1.163,1.163,0,0,1-1.312.219c-.547-.219-.984-.547-1.531-.766l-.984-.328a1.891,1.891,0,0,0-1.094.109,3.421,3.421,0,0,0-1.094.547,1.643,1.643,0,0,0-.766.984c-.219.547-.437,1.2-.656,1.859A1.3,1.3,0,0,1,14.984,28H13.563a1.28,1.28,0,0,1-1.2-.875,14.608,14.608,0,0,0-.766-1.969,2.41,2.41,0,0,0-1.75-1.312,6.969,6.969,0,0,0-.766-.219,1.8,1.8,0,0,0-1.094.109,9.7,9.7,0,0,0-1.859.875,1.163,1.163,0,0,1-1.312-.219L3.719,23.3A1.163,1.163,0,0,1,3.5,21.984c.219-.547.547-1.094.766-1.641a6.168,6.168,0,0,0,.109-.766,1.544,1.544,0,0,0-.109-.984A3.6,3.6,0,0,0,3.5,17.172a2.632,2.632,0,0,0-.875-.656c-.547-.219-1.2-.437-1.859-.656A1.168,1.168,0,0,1,0,14.875v-1.75a1.168,1.168,0,0,1,.766-.984c.547-.219,1.2-.437,1.75-.656l.656-.328c.219-.109.328-.328.547-.547a4.832,4.832,0,0,0,.656-1.75,1.6,1.6,0,0,0-.219-1.2,11.038,11.038,0,0,0-.766-1.641A1.163,1.163,0,0,1,3.609,4.7,10.312,10.312,0,0,1,4.7,3.609,1.077,1.077,0,0,1,5.578,3.281Zm8.313,17.281a6.209,6.209,0,0,0,6.125-6.234A6.145,6.145,0,0,0,14,7.984a6.166,6.166,0,0,0-6.125,6.344A6.048,6.048,0,0,0,13.891,20.563Z" transform="translate(0 0)"/>
  </g>
</svg>
