<svg xmlns="http://www.w3.org/2000/svg" viewBox="9456 526 32.2 28">
  <defs>
    <style>
      .cls-1 {
        fill: #fff;
      }
    </style>
  </defs>
  <g id="SOUND" transform="translate(9456 526)">
    <path id="Path_197" data-name="Path 197" class="cls-1" d="M15.2.26l-7.408,8.1H2.427A2.6,2.6,0,0,0,0,11.02V17a2.6,2.6,0,0,0,2.427,2.657H7.791l7.281,8.1a1.47,1.47,0,0,0,2.3-1.328V1.588A1.4,1.4,0,0,0,15.2.26Z" transform="translate(0 -0.019)"/>
    <path id="Path_199" data-name="Path 199" class="cls-1" d="M18.886.917a1.633,1.633,0,0,0-2.044,1.2,2.382,2.382,0,0,0,.128,1.328,1.521,1.521,0,0,0,.766.8c2.171.93,4.215,2.125,5.365,4.384,3.193,6.111.128,13.019-5.237,14.613a1.715,1.715,0,0,0-1.15,2.126,1.757,1.757,0,0,0,1.533,1.328h.383c5.237-1.594,8.941-6.908,8.941-12.886A12.8,12.8,0,0,0,18.886.917Z" transform="translate(4.616 0.254)"/>
    <path id="Path_198" data-name="Path 198" class="cls-1" d="M18.072,15.743a4.181,4.181,0,0,0,2.81-4.118,4.181,4.181,0,0,0-2.81-4.118c-.383-.133-.766.266-.766.664v6.908C17.178,15.477,17.561,15.876,18.072,15.743Z" transform="translate(4.792 2.432)"/>
  </g>
</svg>
