<svg xmlns="http://www.w3.org/2000/svg" viewBox="9020 340 23 20"><defs><style>.a{fill:#fff;}</style></defs><g transform="translate(9020 340)"><path class="a" d="M10.857.191,5.565,5.979H1.733A1.854,1.854,0,0,0,0,7.877v4.27a1.854,1.854,0,0,0,1.733,1.9H5.565l5.2,5.788a1.05,1.05,0,0,0,1.642-.949V1.14A1,1,0,0,0,10.857.191Z" transform="translate(0 -0.019)"/><path class="a" d="M18.246.9a1.167,1.167,0,0,0-1.46.854,1.7,1.7,0,0,0,.091.949,1.086,1.086,0,0,0,.547.569A7.046,7.046,0,0,1,21.257,6.4c2.281,4.365.091,9.3-3.741,10.438a1.225,1.225,0,0,0-.821,1.518,1.255,1.255,0,0,0,1.095.949h.274a9.516,9.516,0,0,0,6.386-9.2A9.142,9.142,0,0,0,18.246.9Z" transform="translate(-1.459 -0.061)"/><path class="a" d="M17.846,13.382a2.986,2.986,0,0,0,2.007-2.942A2.986,2.986,0,0,0,17.846,7.5c-.274-.095-.547.19-.547.474v4.934C17.207,13.192,17.481,13.477,17.846,13.382Z" transform="translate(-1.515 -0.4)"/></g></svg>