<svg xmlns="http://www.w3.org/2000/svg" viewBox="916.893 2263.99 70.613 115.286">
  <defs>
    <style>
      .cls-1 {
        fill: #fff;
      }
    </style>
  </defs>
  <g id="Group_1047" data-name="Group 1047" transform="translate(916.893 2263.99)">
    <path id="Path_803" data-name="Path 803" class="cls-1" d="M70.613,57.283V57.1c0-.09,0-.09-.09-.18v-.18c0-.09-.09-.09-.09-.18a.088.088,0,0,0-.09-.09L36.838.9c-.09-.09-.18-.27-.27-.36h-.09c-.09-.09-.18-.18-.27-.18a.088.088,0,0,1-.09-.09.331.331,0,0,0-.27-.09h-.09a.5.5,0,0,0-.45-.18.812.812,0,0,0-.45.09h-.09c-.09,0-.18.09-.27.09a.088.088,0,0,0-.09.09c-.09.09-.18.09-.27.18h-.09a1.243,1.243,0,0,0-.27.36L.27,56.472a.088.088,0,0,1-.09.09c0,.09-.09.09-.09.18v.18c0,.09,0,.09-.09.18v.721c0,.09,0,.09.09.18v.09a1.243,1.243,0,0,0,.27.36l.09.09.27.27a.088.088,0,0,1,.09.09l33.6,19.635h.09a.331.331,0,0,0,.27.09h.09c.18,0,.27.09.45.09a.812.812,0,0,0,.45-.09h.09c.09,0,.18-.09.27-.09h.09L69.712,58.994c.09,0,.09-.09.18-.09l.09-.09.18-.18.09-.09c0-.09.09-.09.09-.18s.09-.09.09-.18,0-.09.09-.18c0-.09,0-.09.09-.18v-.54ZM33.505,41.071,6.395,53.41,33.505,8.286Zm0,3.963V73.855L5.764,57.643Zm3.6,0L64.849,57.643,37.108,73.855Zm0-3.963V8.286L64.218,53.41Z"/>
    <path id="Path_804" data-name="Path 804" class="cls-1" d="M67.829,71.972,35.314,91.517,2.8,71.972a1.787,1.787,0,0,0-2.252.36,1.9,1.9,0,0,0-.18,2.252L33.873,121.6l.09.09c.09.09.09.18.18.18l.09.09c.09.09.18.09.18.18a.088.088,0,0,1,.09.09c.09,0,.18.09.27.09h.09c.09,0,.27.09.36.09.18,0,.27,0,.36-.09h.09c.09,0,.18-.09.27-.09a.088.088,0,0,0,.09-.09.194.194,0,0,0,.18-.18l.09-.09.18-.18.09-.09L70.081,74.584a1.772,1.772,0,0,0-.18-2.252A1.652,1.652,0,0,0,67.829,71.972ZM33.513,94.579v20.355L8.294,79.538Zm3.6,20.355V94.579L62.335,79.448Z" transform="translate(-0.008 -7.124)"/>
  </g>
</svg>
