<svg xmlns="http://www.w3.org/2000/svg" viewBox="1216 2306.312 149.376 76.146">
  <defs>
    <style>
      .cls-1 {
        fill: #fff;
      }
    </style>
  </defs>
  <path id="Path_805" data-name="Path 805" class="cls-1" d="M32.972,0,0,19.037V57.11L32.972,76.146,65.944,57.11V19.037Zm-2.29,70.911a5.443,5.443,0,0,0-1.1.639l-23.9-13.8A5.718,5.718,0,0,0,2.29,51.875v-27.6a5.443,5.443,0,0,0,1.1-.64h0l23.9,13.8a5.718,5.718,0,0,0,3.391,5.875ZM29.566,33.463l-23.9-13.8a6.128,6.128,0,0,0,0-1.279l23.9-13.8h0a5.712,5.712,0,0,0,6.782,0l23.9,13.8a6.128,6.128,0,0,0,0,1.279l-23.9,13.8A5.712,5.712,0,0,0,29.566,33.463Zm34.1,18.263A5.718,5.718,0,0,0,60.277,57.6L36.363,71.4a6.244,6.244,0,0,0-1.1-.639l-.03-27.454a5.718,5.718,0,0,0,3.391-5.875l23.93-13.95h0a6.244,6.244,0,0,0,1.1.64v27.6ZM88.34,25.313H83.016V51.042H88.34Zm9.265,25.729V41.6c1.309.1,2.618.1,3.718.1,7.585,0,9.771-3.748,9.771-8.388,0-5.607-4.016-8.016-10.2-8.016H92.3V51.027h5.309Zm2.885-13.073c-.982,0-2.439,0-2.885-.03V29.194h3.317c3.212,0,5.027,1.532,5.027,4.343v.074C105.949,35.783,105.161,37.969,100.491,37.969Zm28.822-12.656H113.162V51.042h5.324V39.709h10.1V35.842H118.457V29.209h10.5Zm17.415,5.027,1.383-3.569c-2.082-1.487-4.878-2.038-8.418-2.038-5.146,0-9.37,2.409-9.37,7.332,0,4.417,3.242,6.157,6.484,7.213l3.242,1.1c2.216.758,4.045,1.487,4.045,3.9,0,2.186-1.889,3.064-4.774,3.064a16.035,16.035,0,0,1-7.838-2.008L130.1,49.2c2.335,1.487,5.28,2.216,9.251,2.216,5.651,0,10.024-2.484,10.024-7.763,0-4.923-3.748-6.484-7.54-7.763l-3.54-1.16c-1.532-.506-2.692-1.2-2.692-3.168,0-2.008,1.636-2.811,4.075-2.811a13.34,13.34,0,0,1,7.049,1.591Z" transform="translate(1216 2306.312)"/>
</svg>
