<svg xmlns="http://www.w3.org/2000/svg" viewBox="-943 1189.157 52.332 52.332"><defs><style>.a{fill:#a1a2b8;}</style></defs><path class="a" d="M26.166,52.332A26.166,26.166,0,1,1,52.332,26.166,26.185,26.185,0,0,1,26.166,52.332Zm0-47.821A21.655,21.655,0,1,0,47.821,26.166,21.66,21.66,0,0,0,26.166,4.511ZM19.174,15.339c0-.9.677-1.128,1.353-.677l5.639,3.158a.868.868,0,0,1,0,1.579l-5.188,2.932a.829.829,0,0,1-.677.226,1.208,1.208,0,0,1-1.128-1.128ZM37.445,28.422a1.9,1.9,0,0,1-.9,1.579L20.076,39.926c-.677.226-.9,0-.9-.677v-8.8a1.9,1.9,0,0,1,.9-1.579l16.467-9.925c.451-.226.9,0,.9.451Z" transform="translate(-943 1189.157)"/></svg>