<svg xmlns="http://www.w3.org/2000/svg" viewBox="-584 -1791 28 28"><defs><style>.a{fill:#fff;}</style></defs><path class="a" d="M14,28A14,14,0,1,1,28,14,14.01,14.01,0,0,1,14,28ZM14,2.414A11.586,11.586,0,1,0,25.586,14,11.589,11.589,0,0,0,14,2.414ZM10.259,8.207c0-.483.362-.6.724-.362L14,9.534a.464.464,0,0,1,0,.845l-2.776,1.569a.443.443,0,0,1-.362.121.647.647,0,0,1-.6-.6Zm9.776,7a1.016,1.016,0,0,1-.483.845l-8.81,5.31c-.362.121-.483,0-.483-.362V16.293a1.016,1.016,0,0,1,.483-.845l8.81-5.31c.241-.121.483,0,.483.241Z" transform="translate(-584 -1791)"/></svg>