<svg xmlns="http://www.w3.org/2000/svg" viewBox="19525 398 48 48">
  <defs>
    <style>
      .cls-1 {
        fill: #fff;
      }
    </style>
  </defs>
  <g id="Group_393" data-name="Group 393" transform="translate(19077 63)">
    <path id="Subtraction_1" data-name="Subtraction 1" class="cls-1" d="M-11-27H-55a2,2,0,0,1-2-2V-73a2,2,0,0,1,2-2h44a2,2,0,0,1,2,2v44A2,2,0,0,1-11-27ZM-32.886-65.094a12.875,12.875,0,0,0-7.019,2.042,13.782,13.782,0,0,0-6.557,8.476,14.025,14.025,0,0,0-.375,5.438,14.056,14.056,0,0,0,1.827,5.357l-2.041,7.275,7.4-1.914a15.046,15.046,0,0,0,6.764,1.659,14.256,14.256,0,0,0,9.939-4.211,14.032,14.032,0,0,0,4.1-9.955A14.119,14.119,0,0,0-32.886-65.094Zm.128,25.908a12,12,0,0,1-6-1.659l-.382-.256-4.468,1.148,1.149-4.339-.256-.383A12.194,12.194,0,0,1-44.5-50.927a11.672,11.672,0,0,1,3.43-8.312,11.67,11.67,0,0,1,8.312-3.43,11.789,11.789,0,0,1,4.483.91,11.885,11.885,0,0,1,3.813,2.536,11.884,11.884,0,0,1,2.537,3.813,11.792,11.792,0,0,1,.909,4.483,11.671,11.671,0,0,1-3.43,8.312A11.671,11.671,0,0,1-32.758-39.186Zm-4.978-18.25a.982.982,0,0,0-.893.383,3.685,3.685,0,0,0-1.276,2.936,7.247,7.247,0,0,0,1.4,3.7,15.728,15.728,0,0,0,5.871,5.36c.316.126.669.255,1.011.379s.709.258,1.031.387a7.673,7.673,0,0,0,1.5.18,4.133,4.133,0,0,0,.669-.052,3.305,3.305,0,0,0,2.426-1.66,3.772,3.772,0,0,0,.255-1.659,2.783,2.783,0,0,0-.638-.383c-.357-.119-1.946-.909-2.425-1.148a.914.914,0,0,0-.383-.128.469.469,0,0,0-.383.256,13.756,13.756,0,0,1-1.148,1.4.536.536,0,0,1-.394.211,1.246,1.246,0,0,1-.372-.084,12.988,12.988,0,0,1-2.808-1.786A8.852,8.852,0,0,1-36.2-51.566a.805.805,0,0,1-.08-.431.4.4,0,0,1,.208-.335,2.8,2.8,0,0,1,.51-.638,2.818,2.818,0,0,1,.192-.32,2.832,2.832,0,0,0,.191-.318.58.58,0,0,0,0-.638A17.483,17.483,0,0,1-36.332-56.8c-.2-.6-.4-.646-.574-.646-.032,0-.064,0-.1,0s-.064,0-.1,0Z" transform="translate(505 410)"/>
  </g>
</svg>
