<svg xmlns="http://www.w3.org/2000/svg" viewBox="19469 398 48 48">
  <defs>
    <style>
      .cls-1 {
        fill: #fff;
      }
    </style>
  </defs>
  <g id="Group_394" data-name="Group 394" transform="translate(19021 63)">
    <path id="Subtraction_1" data-name="Subtraction 1" class="cls-1" d="M-11-27H-55a2,2,0,0,1-2-2V-73a2,2,0,0,1,2-2h44a2,2,0,0,1,2,2v44A2,2,0,0,1-11-27ZM-32.629-42.965h0l7.189,5.3a2.572,2.572,0,0,0,1.2.374c.721,0,1.195-.535,1.448-1.636l4.667-22.327a1.845,1.845,0,0,0-.148-1.659,1.264,1.264,0,0,0-1.049-.5,1.871,1.871,0,0,0-.694.141L-47.767-52.552c-.961.385-1.483.852-1.47,1.315.011.385.4.725,1.092.956l6.938,2.145,2.649,8.073a4.633,4.633,0,0,1,.2.594c.13.459.189.668.933.668a1.515,1.515,0,0,0,1.249-.614c.045-.047.091-.1.139-.143l3.406-3.406Zm-4.922,2.519L-40.2-48.515l15.642-9.839a1.5,1.5,0,0,1,.79-.275c.169,0,.288.053.32.142s-.045.239-.227.386L-37.044-45.993l-.5,5.546Z" transform="translate(505 410)"/>
  </g>
</svg>
