<svg xmlns="http://www.w3.org/2000/svg" viewBox="19637 398 48 48">
  <defs>
    <style>
      .cls-1 {
        fill: #fff;
      }
    </style>
  </defs>
  <g id="Group_391" data-name="Group 391" transform="translate(19139 63)">
    <path id="Subtraction_2" data-name="Subtraction 2" class="cls-1" d="M-25-27H-69a2,2,0,0,1-2-2V-73a2,2,0,0,1,2-2h44a2,2,0,0,1,2,2v44A2,2,0,0,1-25-27ZM-44.807-60.625a1.53,1.53,0,0,0-1.44,1.177l-4.842,17.932a1.536,1.536,0,0,0,.272,1.346,1.629,1.629,0,0,0,1.3.617,1.528,1.528,0,0,0,1.439-1.178l4.712-17.931a1.631,1.631,0,0,0-.258-1.412A1.46,1.46,0,0,0-44.807-60.625Zm5.536,2.365a1.572,1.572,0,0,0-1.61,1.561,1.48,1.48,0,0,0,.392,1.048l5.235,5.5-5.235,5.628a1.479,1.479,0,0,0-.392,1.047,1.524,1.524,0,0,0,1.552,1.562,1.692,1.692,0,0,0,1.2-.514l6.282-6.675a1.594,1.594,0,0,0,0-2.094l-6.282-6.544A1.491,1.491,0,0,0-39.271-58.26Zm-15.95,0a1.454,1.454,0,0,0-1.1.514l-6.283,6.675a1.594,1.594,0,0,0,0,2.093l6.152,6.545a1.692,1.692,0,0,0,1.2.514,1.524,1.524,0,0,0,1.552-1.562,1.479,1.479,0,0,0-.392-1.047l-5.235-5.5,5.235-5.628a1.48,1.48,0,0,0,.392-1.048,1.557,1.557,0,0,0-.468-1.137A1.523,1.523,0,0,0-55.221-58.26Z" transform="translate(569 410)"/>
  </g>
</svg>
