<svg xmlns="http://www.w3.org/2000/svg" viewBox="2607.223 1189 72 72"><defs><style>.a{fill:#fff;}.b{fill:#dc4b3e;}</style></defs><g transform="translate(2607.223 1189)"><rect class="a" width="54" height="48" transform="translate(12 12)"/><path class="b" d="M27.956,34.2,15.919,45.844,15.975,24.3Zm9.731,5.231a2.611,2.611,0,0,1-3.375,0l-3.769-3.15L18.394,48.038l35.1.112L41.513,36.338Zm18.337,6.525.056-21.544L44.044,34.256Zm-4.95-21.769.394-.338-30.825-.056L36,36.563ZM72,3.375v65.25A3.385,3.385,0,0,1,68.625,72H3.375A3.385,3.385,0,0,1,0,68.625V3.375A3.385,3.385,0,0,1,3.375,0h65.25A3.385,3.385,0,0,1,72,3.375ZM59.288,23.569a2.966,2.966,0,0,0-1.8-2.812l-.113-.056-42.469-.169h0l-.113.056a3.052,3.052,0,0,0-1.969,2.869l-.113,24.919a2.97,2.97,0,0,0,2.756,3.037l40.894.112h0a2.694,2.694,0,0,0,1.969-.9,3.019,3.019,0,0,0,.844-2.138Z"/></g></svg>