<svg xmlns="http://www.w3.org/2000/svg" viewBox="2695.318 1189 72 72"><defs><style>.a{fill:#2ba2d6;}.b{fill:#c8daea;}.c{fill:#a9c9dd;}.d{fill:#fff;}</style></defs><g transform="translate(2695.318 1189)"><path class="a" d="M72,68.471A3.54,3.54,0,0,1,68.471,72H3.529A3.54,3.54,0,0,1,0,68.471V3.529A3.54,3.54,0,0,1,3.529,0H68.471A3.54,3.54,0,0,1,72,3.529Z"/><g transform="translate(16.453 19.557)"><path class="b" d="M42.1,59.518c-1.2,0-.988-.424-1.341-1.553L37.3,46.671,63.7,31" transform="translate(-27.424 -28.675)"/><path class="c" d="M44.1,67.576a2.45,2.45,0,0,0,1.835-.918L50.735,62l-6-3.6" transform="translate(-29.424 -36.733)"/><path class="d" d="M38.62,49.372,53.161,60.1c1.624.918,2.824.424,3.247-1.553l5.859-27.812c.635-2.4-.918-3.529-2.541-2.824L25.138,41.325c-2.4.918-2.329,2.259-.424,2.824l8.894,2.824L54.15,33.984c.988-.565,1.835-.282,1.129.353" transform="translate(-23.309 -27.706)"/></g></g></svg>