<svg xmlns="http://www.w3.org/2000/svg" viewBox="285 356 18 18"><defs><style>.a{fill:#e13d84;}</style></defs><path class="a" d="M15.408,2.642a9.093,9.093,0,0,0-12.766,0,9.093,9.093,0,0,0,0,12.766,9.093,9.093,0,0,0,12.766,0A9.093,9.093,0,0,0,15.408,2.642ZM13.2,13.2a.926.926,0,0,1-1.277,0L9.025,10.3,6.131,13.2a.9.9,0,0,1-1.277-1.277L7.748,9.025,4.855,6.131A.9.9,0,0,1,6.131,4.855L9.025,7.748l2.894-2.894A.9.9,0,0,1,13.2,6.131L10.3,9.025,13.2,11.919A.924.924,0,0,1,13.2,13.2Z" transform="translate(284.975 355.975)"/></svg>