<svg xmlns="http://www.w3.org/2000/svg" viewBox="19581 398 48 48">
  <defs>
    <style>
      .cls-1 {
        fill: #fff;
      }
    </style>
  </defs>
  <g id="Group_392" data-name="Group 392" transform="translate(19133 63)">
    <path id="Subtraction_1" data-name="Subtraction 1" class="cls-1" d="M-11-27H-55a2,2,0,0,1-2-2V-73a2,2,0,0,1,2-2h44a2,2,0,0,1,2,2v44A2,2,0,0,1-11-27ZM-41.647-60.125A4.412,4.412,0,0,0-46-55.771v11.765A4.711,4.711,0,0,0-41.294-39.3h17.53a4.711,4.711,0,0,0,4.706-4.706V-55.771a4.312,4.312,0,0,0-1.294-3.1,4.342,4.342,0,0,0-3.059-1.25H-41.647Zm17.883,18.236h-17.53a2.052,2.052,0,0,1-2-2v-9.176l9.882,7.411a.991.991,0,0,0,.824.236,1.706,1.706,0,0,0,.823-.235l10-7.412v9.176A2.052,2.052,0,0,1-23.764-41.889Zm-8.824-6.47h0l-10.588-7.883a1.933,1.933,0,0,1,1.765-1.176h17.648A1.817,1.817,0,0,1-22-56.242l-10.589,7.883Z" transform="translate(505 410)"/>
  </g>
</svg>
