<svg xmlns="http://www.w3.org/2000/svg" viewBox="2432 1189 72 72"><defs><style>.a{fill:#fff;}.b{fill:#55acee;}</style></defs><g transform="translate(2432 1189)"><rect class="a" width="54" height="48" transform="translate(12 15)"/><path class="b" d="M68.625,0H3.375A3.385,3.385,0,0,0,0,3.375v65.25A3.385,3.385,0,0,0,3.375,72h65.25A3.385,3.385,0,0,0,72,68.625V3.375A3.385,3.385,0,0,0,68.625,0ZM52.031,27.788v1.069c0,10.912-8.325,23.513-23.513,23.513a23.2,23.2,0,0,1-12.656-3.712c.675.056,1.294.113,1.969.113a16.881,16.881,0,0,0,10.294-3.544,8.245,8.245,0,0,1-7.706-5.737,7.116,7.116,0,0,0,1.575.169,9.773,9.773,0,0,0,2.194-.281,8.32,8.32,0,0,1-6.75-8.156v-.113a7.861,7.861,0,0,0,3.769,1.013,8.244,8.244,0,0,1-3.656-6.863,8.1,8.1,0,0,1,1.125-4.163,23.529,23.529,0,0,0,17.044,8.663,7.128,7.128,0,0,1-.225-1.913,8.276,8.276,0,0,1,14.287-5.681,16.869,16.869,0,0,0,5.231-2.025,8.166,8.166,0,0,1-3.656,4.556A16.3,16.3,0,0,0,56.081,23.4,14.369,14.369,0,0,1,52.031,27.788Z"/></g></svg>