<svg xmlns="http://www.w3.org/2000/svg" viewBox="2520.095 1189 72 72"><defs><style>.a{fill:#fff;}.b{fill:#25d366;}</style></defs><g transform="translate(2520.095 1189)"><rect class="a" width="54" height="48" transform="translate(9 15)"/><path class="b" d="M36.113,19.125A16.708,16.708,0,0,0,19.406,35.831a16.99,16.99,0,0,0,2.531,8.888l.394.619-1.687,6.131L27,49.838l.619.338a16.753,16.753,0,0,0,8.494,2.306h0A16.705,16.705,0,0,0,47.925,23.963,16.925,16.925,0,0,0,36.113,19.125ZM45.9,42.975c-.394,1.181-2.419,2.25-3.375,2.363a6.95,6.95,0,0,1-3.15-.225,28.888,28.888,0,0,1-2.869-1.069c-5.063-2.081-8.325-7.144-8.55-7.481s-2.025-2.7-2.025-5.175a5.6,5.6,0,0,1,1.744-4.162,1.815,1.815,0,0,1,1.35-.619h.956c.281,0,.731-.112,1.125.844.394,1.012,1.406,3.488,1.575,3.713a.991.991,0,0,1,.056.9,2.6,2.6,0,0,1-.506.844c-.225.281-.506.675-.731.9a.743.743,0,0,0-.225,1.012,14.632,14.632,0,0,0,2.812,3.488,13.305,13.305,0,0,0,4.05,2.475c.506.225.788.225,1.069-.112s1.237-1.463,1.575-1.969.675-.394,1.125-.225,2.925,1.406,3.431,1.631a2.578,2.578,0,0,1,.956.563A4.961,4.961,0,0,1,45.9,42.975ZM68.625,0H3.375A3.385,3.385,0,0,0,0,3.375v65.25A3.385,3.385,0,0,0,3.375,72h65.25A3.385,3.385,0,0,0,72,68.625V3.375A3.385,3.385,0,0,0,68.625,0ZM36.113,55.913h0a20.335,20.335,0,0,1-9.619-2.419L15.863,56.306,18.731,45.9A20.09,20.09,0,0,1,36.056,15.75,20.069,20.069,0,0,1,56.081,35.831,20,20,0,0,1,36.113,55.913Z"/></g></svg>