<svg xmlns="http://www.w3.org/2000/svg" viewBox="19413 398 48 48">
  <defs>
    <style>
      .cls-1 {
        fill: #fff;
      }
    </style>
  </defs>
  <g id="Group_395" data-name="Group 395" transform="translate(18965 63)">
    <path id="Subtraction_1" data-name="Subtraction 1" class="cls-1" d="M-11-27H-55a2,2,0,0,1-2-2V-73a2,2,0,0,1,2-2h44a2,2,0,0,1,2,2v44A2,2,0,0,1-11-27ZM-46-40.2a17.539,17.539,0,0,0,9.5,2.8A17.619,17.619,0,0,0-18.9-55v-.8a8.918,8.918,0,0,0,3-3.4,10.768,10.768,0,0,1-3.5,1,6.091,6.091,0,0,0,2.7-3.4,13.237,13.237,0,0,1-3.9,1.5A6.341,6.341,0,0,0-25.1-62a6.152,6.152,0,0,0-4.374,1.825A6.154,6.154,0,0,0-31.3-55.8a7.914,7.914,0,0,0,.2,1.4,17.1,17.1,0,0,1-7.075-1.85A18.179,18.179,0,0,1-43.9-60.8a6.484,6.484,0,0,0-.8,3.1A6.1,6.1,0,0,0-42-52.6a6.035,6.035,0,0,1-2.9-.8v.1a6.116,6.116,0,0,0,1.463,3.95A6.524,6.524,0,0,0-39.8-47.2l-.024.007A7.839,7.839,0,0,1-41.4-47a4.9,4.9,0,0,1-1.2-.1,6.274,6.274,0,0,0,2.225,3.087A6.046,6.046,0,0,0-36.8-42.8a12,12,0,0,1-7.7,2.7c-.25,0-.5-.025-.75-.05S-45.75-40.2-46-40.2Z" transform="translate(505 410)"/>
  </g>
</svg>
