<svg xmlns="http://www.w3.org/2000/svg" viewBox="-936 1809 129 129"><defs><style>.a{fill:#7d70ff;}</style></defs><path class="a" d="M64.5,129A64.5,64.5,0,1,1,107.8,16.7a2.414,2.414,0,1,1-3.249,3.571A59.672,59.672,0,1,0,124.175,64.5a58.946,58.946,0,0,0-6.434-26.99,2.417,2.417,0,1,1,4.311-2.188A63.7,63.7,0,0,1,129,64.5,64.555,64.555,0,0,1,64.5,129ZM57.037,86.858l38.475-36.9a4.82,4.82,0,0,0,0-6.981h0a5.168,5.168,0,0,0-7.174,0L55.589,74.344,40.63,59.964a5.168,5.168,0,0,0-7.174,0h0a4.82,4.82,0,0,0,0,6.981L54.174,86.858A2.059,2.059,0,0,0,57.037,86.858Z" transform="translate(-936 1809)"/></svg>